<svg xmlns="http://www.w3.org/2000/svg" width="22" height="24" viewBox="0 0 22 24">
    <g fill="none" fill-rule="evenodd">
        <rect width="22" height="24" fill="#1766A6" rx="8"/>
        <path fill="#FFF" fill-rule="nonzero" d="M15.096 11.358H11.57V7.392c0-.35-.207-.642-.57-.642s-.57.292-.57.642v3.966H6.904c-.311 0-.57.234-.57.642 0 .408.259.642.57.642h3.526v3.966c0 .409.259.642.57.642.311 0 .57-.292.57-.642v-3.966h3.526c.363 0 .57-.292.57-.642 0-.35-.259-.642-.57-.642z"/>
    </g>
</svg>
