<svg xmlns="http://www.w3.org/2000/svg" width="54" height="56" viewBox="0 0 54 56">
    <g fill="none" fill-rule="nonzero">
        <circle cx="23" cy="32" r="23" fill="#015DDC" opacity=".597"/>
        <path stroke="#3C3F52" d="M26.697 52.253c-4.466-4.577-10.636-12.459-8.104-28.552 5.065-17.13 17.22-11.42 20.26-7.267 3.038 4.153 5.064 14.016 3.038 23.36-2.026 9.345-11.649 10.902-15.7 6.23-4.052-4.672-5.065-17.131-1.52-24.4 3.545-7.267 10.13-3.633 11.649 0 1.013 2.077 4.558 14.536 2.026 18.69-1.688 2.422-3.208 3.806-4.558 4.152-3.715.693-6.247-1.384-7.597-6.23-.507-3.633-1.52-10.9 3.15-15.054 2.42-1.557 5.966 3.634 5.966 9.344 0 5.71-1.124 8.307-3.545 7.787-2.422-.519-3.941-6.748-3.04-8.825.903-2.076 2.027-3.115 3.04-1.038 1.013 2.076 0 4.672 0 5.191l-5.065 16.612zM24.74 0l1.23 7.901L24.74 0zm7.774 8.825l.961-6.364-.961 6.364zm7.458 4.166l3.589-4.67-3.589 4.67zm5.044 7.501l7.325-4.427-7.325 4.427zm1.392 9.506L54 28.888l-7.592 1.11zM19.43 14.365L14.983 8.71l4.447 5.656zm-5.22 8.705l-5.065-2.135 5.064 2.135zm.468 10.458L9 32.794l5.678.734zm1.972 8.928l-6.733 1.922 6.733-1.922zm2.845 8.98L16.404 56l3.091-4.564z"/>
    </g>
</svg>
