<svg xmlns="http://www.w3.org/2000/svg" xmlns:xlink="http://www.w3.org/1999/xlink" width="96" height="96" viewBox="0 0 96 96">
    <defs>
        <circle id="b" cx="40" cy="40" r="40"/>
        <filter id="a" width="132.5%" height="132.5%" x="-16.2%" y="-13.8%" filterUnits="objectBoundingBox">
            <feOffset dy="2" in="SourceAlpha" result="shadowOffsetOuter1"/>
            <feGaussianBlur in="shadowOffsetOuter1" result="shadowBlurOuter1" stdDeviation="4"/>
            <feColorMatrix in="shadowBlurOuter1" values="0 0 0 0 0.682744565 0 0 0 0 0.682744565 0 0 0 0 0.682744565 0 0 0 0.51 0"/>
        </filter>
    </defs>
    <g fill="none" fill-rule="evenodd">
        <g transform="translate(8 6)">
            <use fill="#000" filter="url(#a)" xlink:href="#b"/>
            <use fill="#FFF" xlink:href="#b"/>
        </g>
        <g fill="#1766A6" fill-rule="nonzero">
            <path d="M66.37 43.261v-16.45C66.37 24.71 64.65 23 62.534 23H27.838C25.722 23 24 24.71 24 26.81V61.26c0 2.101 1.722 3.81 3.838 3.81h22.343a14.317 14.317 0 0 0 11.523 5.804C69.587 70.873 76 64.505 76 56.678c0-6.205-4.031-11.492-9.63-13.417zM41.417 26.102h7.538v8.562l-3.19-1.265a1.576 1.576 0 0 0-1.158 0l-3.19 1.265v-8.562zM27.838 61.967a.712.712 0 0 1-.714-.708V26.81c0-.391.32-.709.714-.709h10.455v10.853c0 .514.257.995.685 1.284.43.288.975.347 1.456.156l4.751-1.885 4.752 1.885a1.572 1.572 0 0 0 1.456-.156c.428-.289.685-.77.685-1.284V26.102h10.455c.393 0 .713.318.713.709v15.756a14.453 14.453 0 0 0-1.542-.083c-7.883 0-14.296 6.367-14.296 14.194 0 1.869.366 3.654 1.03 5.29h-20.6zm33.866 5.804c-6.16 0-11.172-4.976-11.172-11.093 0-6.116 5.011-11.092 11.172-11.092 6.16 0 11.172 4.976 11.172 11.092 0 6.117-5.012 11.093-11.172 11.093z"/>
            <path d="M67.392 55.281h-4.23v-4.2c0-.856-.7-1.55-1.562-1.55-.863 0-1.562.694-1.562 1.55v5.751c0 .857.7 1.551 1.562 1.551h5.792c.863 0 1.562-.694 1.562-1.55 0-.857-.7-1.552-1.562-1.552z"/>
        </g>
    </g>
</svg>
