<svg xmlns="http://www.w3.org/2000/svg" xmlns:xlink="http://www.w3.org/1999/xlink" width="100" height="100" viewBox="0 0 100 100">
    <defs>
        <circle id="b" cx="40" cy="40" r="40"/>
        <filter id="a" width="140%" height="140%" x="-20%" y="-17.5%" filterUnits="objectBoundingBox">
            <feOffset dy="2" in="SourceAlpha" result="shadowOffsetOuter1"/>
            <feGaussianBlur in="shadowOffsetOuter1" result="shadowBlurOuter1" stdDeviation="5"/>
            <feColorMatrix in="shadowBlurOuter1" values="0 0 0 0 0.682744565 0 0 0 0 0.682744565 0 0 0 0 0.682744565 0 0 0 0.51 0"/>
        </filter>
    </defs>
    <g fill="none" fill-rule="evenodd">
        <g transform="translate(10 8)">
            <use fill="#000" filter="url(#a)" xlink:href="#b"/>
            <use fill="#FFF" xlink:href="#b"/>
        </g>
        <g fill="#1766A6" fill-rule="nonzero">
            <path d="M59.227 44.625c0-1.036-.857-1.875-1.914-1.875H37.61c-1.056 0-1.913.84-1.913 1.875 0 1.036.857 1.875 1.913 1.875h19.704c1.057 0 1.914-.84 1.914-1.875zM37.61 50.25c-1.057 0-1.914.84-1.914 1.875 0 1.036.857 1.875 1.913 1.875h11.967c1.057 0 1.913-.84 1.913-1.875 0-1.036-.856-1.875-1.913-1.875H37.61z"/>
            <path d="M42.105 68.25h-6.398c-2.11 0-3.826-1.682-3.826-3.75v-33c0-2.068 1.716-3.75 3.826-3.75h23.52c2.11 0 3.826 1.682 3.826 3.75v11.531c0 1.036.856 1.875 1.913 1.875 1.056 0 1.913-.84 1.913-1.875V31.5c0-4.136-3.433-7.5-7.652-7.5h-23.52c-4.22 0-7.652 3.365-7.652 7.5v33c0 4.136 3.432 7.5 7.652 7.5h6.398c1.056 0 1.913-.84 1.913-1.875 0-1.036-.857-1.875-1.913-1.875z"/>
            <path d="M70.267 51.147c-2.238-2.193-5.878-2.193-8.115-.001L51.65 61.417a1.869 1.869 0 0 0-.479.782l-2.287 7.38a1.849 1.849 0 0 0 .461 1.855 1.933 1.933 0 0 0 1.88.498l7.722-2.096c.317-.087.607-.252.84-.48l10.481-10.254a5.552 5.552 0 0 0 0-7.955zM57.44 66.353l-3.884 1.055 1.137-3.668 7.086-6.93 2.706 2.651-7.045 6.892zm10.124-9.903l-.37.362-2.706-2.651.37-.362a1.943 1.943 0 0 1 2.705 0 1.85 1.85 0 0 1 .001 2.65zM57.313 35.25H37.61c-1.056 0-1.913.84-1.913 1.875 0 1.036.857 1.875 1.913 1.875h19.704c1.057 0 1.914-.84 1.914-1.875 0-1.036-.857-1.875-1.914-1.875z"/>
        </g>
    </g>
</svg>
