<svg xmlns="http://www.w3.org/2000/svg" width="60" height="60" viewBox="0 0 60 60">
    <g fill="none" fill-rule="evenodd">
        <path fill="#FFF" fill-rule="nonzero" d="M56.595 29.97c0-14.688-11.954-26.642-26.64-26.642-14.688 0-26.627 11.954-26.627 26.641 0 14.687 11.954 26.642 26.641 26.642 14.687 0 26.626-11.955 26.626-26.642z"/>
        <path fill="#EDD36D" fill-rule="nonzero" d="M29.97 51.588c-11.94 0-21.634-9.71-21.634-21.634 0-11.923 9.71-21.649 21.633-21.649 11.924 0 21.634 9.71 21.634 21.634S41.908 51.588 29.97 51.588z"/>
        <path fill="#3A6FB0" fill-rule="nonzero" d="M29.97 0C13.434 0 0 13.435 0 29.97c0 16.534 13.435 29.969 29.97 29.969 16.534 0 29.969-13.435 29.969-29.97C59.939 13.435 46.489 0 29.969 0zM3.327 29.97c0-14.688 11.954-26.642 26.641-26.642 14.687 0 26.642 11.954 26.642 26.641 0 14.687-11.955 26.642-26.642 26.642S3.33 44.656 3.33 29.969z"/>
        <path stroke="#3A6FB0" stroke-linecap="round" stroke-linejoin="round" stroke-width="3.206" d="M15.16 29.97l9.344 10.29L44.03 20.412"/>
    </g>
</svg>
