<svg xmlns="http://www.w3.org/2000/svg" xmlns:xlink="http://www.w3.org/1999/xlink" width="96" height="96" viewBox="0 0 96 96">
    <defs>
        <circle id="b" cx="40" cy="40" r="40"/>
        <filter id="a" width="132.5%" height="132.5%" x="-16.2%" y="-13.8%" filterUnits="objectBoundingBox">
            <feOffset dy="2" in="SourceAlpha" result="shadowOffsetOuter1"/>
            <feGaussianBlur in="shadowOffsetOuter1" result="shadowBlurOuter1" stdDeviation="4"/>
            <feColorMatrix in="shadowBlurOuter1" values="0 0 0 0 0.682744565 0 0 0 0 0.682744565 0 0 0 0 0.682744565 0 0 0 0.51 0"/>
        </filter>
    </defs>
    <g fill="none" fill-rule="evenodd">
        <g transform="translate(8 6)">
            <use fill="#000" filter="url(#a)" xlink:href="#b"/>
            <use fill="#FFF" xlink:href="#b"/>
        </g>
        <g fill="#1766A6" fill-rule="nonzero">
            <path d="M66.37 43.311v-16.45c0-2.101-1.721-3.81-3.837-3.81H27.838C25.722 23.05 24 24.76 24 26.86V61.31c0 2.102 1.722 3.81 3.838 3.81h22.343a14.317 14.317 0 0 0 11.523 5.804C69.587 70.923 76 64.556 76 56.73c0-6.205-4.031-11.493-9.63-13.418zM41.417 26.152h7.538v8.563l-3.19-1.265a1.576 1.576 0 0 0-1.158 0l-3.19 1.265v-8.563zM27.838 62.018a.712.712 0 0 1-.714-.709V26.861c0-.39.32-.709.714-.709h10.455v10.853c0 .514.257.995.685 1.284.43.288.975.347 1.456.156l4.751-1.885 4.752 1.885a1.572 1.572 0 0 0 1.456-.156c.428-.289.685-.77.685-1.284V26.152h10.455c.393 0 .713.318.713.71v15.755a14.453 14.453 0 0 0-1.542-.083c-7.883 0-14.296 6.368-14.296 14.195 0 1.868.366 3.653 1.03 5.289h-20.6zm33.866 5.803c-6.16 0-11.172-4.976-11.172-11.092 0-6.117 5.011-11.093 11.172-11.093 6.16 0 11.172 4.976 11.172 11.093 0 6.116-5.012 11.092-11.172 11.092z"/>
            <path d="M63.38 54h-5.508l1.308-1.26a.998.998 0 0 0 .008-1.438 1.064 1.064 0 0 0-1.476-.008l-1.94 1.867a2.482 2.482 0 0 0-.005 3.594l1.942 1.881c.204.198.47.296.737.296.268 0 .536-.1.74-.3a.998.998 0 0 0-.004-1.438l-1.198-1.16h5.396c1.396 0 2.532 1.106 2.532 2.466s-1.123 2.466-2.504 2.466c-.576 0-1.044.455-1.044 1.017 0 .562.468 1.017 1.044 1.017 1.235 0 2.392-.47 3.257-1.322A4.43 4.43 0 0 0 68 58.5c0-2.481-2.073-4.5-4.62-4.5z"/>
        </g>
    </g>
</svg>
