<svg xmlns="http://www.w3.org/2000/svg" xmlns:xlink="http://www.w3.org/1999/xlink" width="96" height="96" viewBox="0 0 96 96">
    <defs>
        <circle id="b" cx="40" cy="40" r="40"/>
        <filter id="a" width="132.5%" height="132.5%" x="-16.2%" y="-13.8%" filterUnits="objectBoundingBox">
            <feOffset dy="2" in="SourceAlpha" result="shadowOffsetOuter1"/>
            <feGaussianBlur in="shadowOffsetOuter1" result="shadowBlurOuter1" stdDeviation="4"/>
            <feColorMatrix in="shadowBlurOuter1" values="0 0 0 0 0.682744565 0 0 0 0 0.682744565 0 0 0 0 0.682744565 0 0 0 0.51 0"/>
        </filter>
    </defs>
    <g fill="none" fill-rule="evenodd">
        <g transform="translate(8 6)">
            <use fill="#000" filter="url(#a)" xlink:href="#b"/>
            <use fill="#FFF" xlink:href="#b"/>
        </g>
        <g fill="#1766A6" fill-rule="nonzero">
            <path d="M59.227 42.625c0-1.036-.857-1.875-1.914-1.875H37.61c-1.056 0-1.913.84-1.913 1.875 0 1.036.857 1.875 1.913 1.875h19.704c1.057 0 1.914-.84 1.914-1.875zM59.227 57.625c0-1.036-.857-1.875-1.914-1.875H37.61c-1.056 0-1.913.84-1.913 1.875 0 1.036.857 1.875 1.913 1.875h19.704c1.057 0 1.914-.84 1.914-1.875zM38.603 48.25c-1.605 0-2.907.84-2.907 1.875 0 1.036 1.302 1.875 2.907 1.875H56.79c1.606 0 2.907-.84 2.907-1.875 0-1.036-1.301-1.875-2.907-1.875H38.603z"/>
            <path d="M42.105 66.25h-6.398c-2.11 0-3.826-1.682-3.826-3.75v-33c0-2.068 1.716-3.75 3.826-3.75h23.52c2.11 0 3.826 1.682 3.826 3.75v11.531c0 1.036.856 1.875 1.913 1.875 1.056 0 1.913-.84 1.913-1.875V29.5c0-4.136-3.433-7.5-7.652-7.5h-23.52c-4.22 0-7.652 3.365-7.652 7.5v33c0 4.136 3.432 7.5 7.652 7.5h6.398c1.056 0 1.913-.84 1.913-1.875 0-1.036-.857-1.875-1.913-1.875z"/>
            <path d="M52.828 25.75h6.399c2.11 0 3.826 1.682 3.826 3.75v33c0 2.068-1.717 3.75-3.826 3.75h-23.52c-2.11 0-3.826-1.682-3.826-3.75V50.969c0-1.036-.857-1.875-1.913-1.875-1.057 0-1.913.84-1.913 1.875V62.5c0 4.136 3.432 7.5 7.652 7.5h23.52c4.219 0 7.652-3.365 7.652-7.5v-33c0-4.136-3.433-7.5-7.652-7.5h-6.399c-1.056 0-1.913.84-1.913 1.875 0 1.036.857 1.875 1.913 1.875z"/>
            <path d="M57.313 33.25H37.61c-1.056 0-1.913.84-1.913 1.875 0 1.036.857 1.875 1.913 1.875h19.704c1.057 0 1.914-.84 1.914-1.875 0-1.036-.857-1.875-1.914-1.875z"/>
        </g>
    </g>
</svg>
