<svg xmlns="http://www.w3.org/2000/svg" xmlns:xlink="http://www.w3.org/1999/xlink" width="96" height="96" viewBox="0 0 96 96">
    <defs>
        <circle id="b" cx="40" cy="40" r="40"/>
        <filter id="a" width="132.5%" height="132.5%" x="-16.2%" y="-13.8%" filterUnits="objectBoundingBox">
            <feOffset dy="2" in="SourceAlpha" result="shadowOffsetOuter1"/>
            <feGaussianBlur in="shadowOffsetOuter1" result="shadowBlurOuter1" stdDeviation="4"/>
            <feColorMatrix in="shadowBlurOuter1" values="0 0 0 0 0.682744565 0 0 0 0 0.682744565 0 0 0 0 0.682744565 0 0 0 0.51 0"/>
        </filter>
    </defs>
    <g fill="none" fill-rule="evenodd">
        <g transform="translate(8 6)">
            <use fill="#000" filter="url(#a)" xlink:href="#b"/>
            <use fill="#FFF" xlink:href="#b"/>
        </g>
        <path fill="#1766A6" fill-rule="nonzero" stroke="#1766A6" stroke-width=".912" d="M61.942 41.05V21.295a2.274 2.274 0 0 0-2.28-2.264h-20.61a2.274 2.274 0 0 0-2.28 2.264v20.463a2.274 2.274 0 0 0 2.28 2.264h19.92a2.97 2.97 0 0 0 2.97-2.97zM47.118 20.874h4.478v5.086l-1.895-.751a.936.936 0 0 0-.688 0l-1.895.751v-5.086zm-8.066 21.305a.423.423 0 0 1-.424-.42V21.293c0-.232.19-.421.424-.421h6.21v6.447a.92.92 0 0 0 .408.762.934.934 0 0 0 .864.093l2.823-1.12 2.823 1.12a.934.934 0 0 0 .864-.093.92.92 0 0 0 .408-.762v-6.447h6.21c.234 0 .424.189.424.42v9.36a8.586 8.586 0 0 0-.916-.049c-4.683 0-8.493 3.783-8.493 8.432 0 1.11.218 2.17.612 3.142H39.052z"/>
        <path fill="#FFF" d="M59.547 30.182v10.96a.672.672 0 0 1-.68.672l-9.076-.088c-1.87-3.474-1.581-6.644.868-9.512 2.449-2.867 5.411-3.545 8.888-2.032z"/>
        <g fill="#1766A6" fill-rule="nonzero" stroke="#1766A6" stroke-width="1.104">
            <path d="M72.093 49.874c-.574 0-1.104.147-1.574.368-.714-.957-1.823-1.576-3.074-1.578-.646 0-1.24.18-1.75.449l-.054.03-1.597.992c-.716-.896-1.788-1.47-2.99-1.47-.646 0-1.24.179-1.751.448l-.064.038-6.113 3.919c-1.38-.427-2.913-.896-4.394-1.335a153.73 153.73 0 0 0-4.27-1.214 36.48 36.48 0 0 0-1.561-.383 10.922 10.922 0 0 0-.578-.111 3.085 3.085 0 0 0-.48-.046 2.81 2.81 0 0 0-.357.028c-.45.062-1.09.205-1.846.39-1.543.38-3.513.932-4.601 1.242v-1.928c0-1.337-1.046-2.432-2.324-2.432h-6.39c-1.28 0-2.325 1.095-2.325 2.433v18.853C24 69.905 25.046 71 26.324 71h6.391c1.278 0 2.324-1.095 2.324-2.433v-1.464c1.38.315 4.44 1.007 7.668 1.7 2.183.47 4.439.94 6.302 1.293.932.177 1.766.325 2.449.43.688.103 1.201.168 1.592.17.304 0 .593-.061.904-.151.58-.171 1.239-.461 1.993-.845 2.627-1.34 6.4-3.852 9.958-6.337 3.552-2.482 6.875-4.932 8.503-6.106 1.02-.735 1.592-1.978 1.592-3.293-.002-2.257-1.749-4.089-3.907-4.09zM33.296 68.568c0 .33-.266.608-.581.608h-6.39c-.316 0-.582-.279-.582-.608V49.714c0-.33.266-.608.581-.608h6.391c.315 0 .58.279.58.608v18.854zM73.42 55.754c-2.002 1.444-6.483 4.755-10.819 7.704-2.167 1.473-4.297 2.854-6.044 3.855-.873.5-1.651.905-2.274 1.176-.31.135-.582.236-.798.299a1.759 1.759 0 0 1-.435.084c-.19.002-.693-.05-1.34-.152-2.288-.35-6.573-1.247-10.263-2.052a705.327 705.327 0 0 1-4.786-1.064c-.72-.162-1.275-.29-1.622-.368V53.534a161.67 161.67 0 0 1 4.239-1.165 48.305 48.305 0 0 1 1.693-.41c.235-.052.44-.092.597-.119.155-.026.275-.036.276-.034.003 0 .094.005.219.025.48.076 1.467.317 2.667.646 3.62.99 9.326 2.778 11.631 3.511.798.252 1.52.632 1.994 1.092.239.23.418.476.538.741.12.267.188.556.19.91-.001.715-.276 1.355-.723 1.825a2.406 2.406 0 0 1-1.724.755l-2.25-.23-7.675-1.032c-.478-.064-.914.289-.976.789-.062.5.277.956.753 1.02l7.7 1.035 2.384.245h.043c2.325-.001 4.209-1.973 4.21-4.407a4.066 4.066 0 0 0-.358-1.693c-.345-.76-.901-1.348-1.53-1.795-.631-.45-1.343-.769-2.068-1l-1.496-.473 4.73-3.033c.306-.158.62-.248.952-.248a2.09 2.09 0 0 1 1.457.598l-2.336 1.45a.936.936 0 0 0-.305 1.25.85.85 0 0 0 1.195.32l5.424-3.368c.309-.16.624-.25.958-.25.6 0 1.142.261 1.534.677l-6.316 3.921a.936.936 0 0 0-.305 1.25.85.85 0 0 0 1.195.32l6.83-4.24a.826.826 0 0 0 .198-.059.87.87 0 0 0 .341-.277l.214-.133c.308-.16.624-.25.957-.25.599.001 1.135.253 1.53.664.392.413.632.974.633 1.602-.003.765-.337 1.432-.84 1.79z"/>
        </g>
    </g>
</svg>
